<svg xmlns="http://www.w3.org/2000/svg" xml:space="preserve" style="fill-rule:evenodd;clip-rule:evenodd;stroke-linejoin:round;stroke-miterlimit:2" viewBox="0 0 443 218"><path d="M57.663 87.25h6.218V73.595a3.123 3.123 0 0 0-3.109-3.109 3.124 3.124 0 0 0-3.109 3.109V87.25ZM44.559 87.25h6.218V73.595a3.124 3.124 0 0 0-3.109-3.109 3.123 3.123 0 0 0-3.109 3.109V87.25ZM70.768 87.25h6.218V73.595a3.124 3.124 0 0 0-3.109-3.109 3.123 3.123 0 0 0-3.109 3.109V87.25ZM62.333 36.996a6.947 6.947 0 0 1 5.693 6.913v5.247h3.791v3.004c9.917 4.71 16.962 15.125 16.962 25.777v9.339h22.942v-9.339c-.485-30.171-21.919-48.536-50.214-48.864l.826 7.923ZM57.991 43.739v5.47h5.589v-5.47a2.808 2.808 0 0 0-2.795-2.794 2.808 2.808 0 0 0-2.794 2.794" style="fill:#1d2769;fill-rule:nonzero"/><path d="M64.996 101.955c-23.69-6.06-32.545-11.215-32.545-26.235 0-10.77 7.189-20.044 17.276-24.006v-2.505h3.804v-5.247c-.047-3.435 2.469-6.413 5.864-6.939l.774-7.871C31.651 29.244 7.383 49.091 8.551 75.72c1.312 29.803 33.975 38.159 51.592 41.911 13.852 2.938 47.223 10.743 55.435 34.224 0 0 3.096-38.855-50.582-49.847" style="fill:#1d2769;fill-rule:nonzero"/><path d="M57.113 143.368c23.887 7.241 30 16.095 30 28.675 0 19.178-14.85 27.062-33.49 27.062a60.257 60.257 0 0 1-43.406-19.113c-11.242-12.033-3.804 7.871-3.804 7.871 7.503 14.193 28.622 27.114 52.182 27.114 30.171.263 55.842-13.865 55.842-42.331 0-30.538-33.293-42.501-51.763-46.607-14.534-3.227-51.159-12.881-57.717-33.384 0 0-7.281 35.536 52.129 50.673" style="fill:#1d2769;fill-rule:nonzero"/><path d="M155.823 201.387h-5.877l-1.416 4.303h-3.135l5.903-16.778h3.187l5.903 16.778h-3.148l-1.417-4.303Zm-2.951-9.563s-.368 1.653-.709 2.624l-1.482 4.486h4.394l-1.495-4.486c-.302-.944-.656-2.624-.656-2.624h-.052ZM162.487 188.912h5.404a7.87 7.87 0 0 1 3.385.473 4.781 4.781 0 0 1 2.741 4.591 4.835 4.835 0 0 1-2.846 4.578c.224.252.417.529.577.826l3.45 6.257h-3.411l-3.345-6.204h-2.925v6.257h-3.043l.013-16.778Zm5.785 7.871a2.452 2.452 0 0 0 2.623-2.624c0-1.6-.695-2.623-3.069-2.623h-2.322v5.247h2.768ZM181.442 191.536h-5.496v-2.624h14.049v2.624h-5.497v14.154h-3.056v-14.154ZM192.159 188.912h3.056v16.778h-3.056zM199.413 188.912h9.694v2.624h-6.559v4.748h5.549v2.624h-5.549v6.782h-3.043l-.092-16.778ZM211.849 188.912h3.056v16.778h-3.056zM226.567 188.637a8.7 8.7 0 0 1 6.191 2.295l-1.469 2.283a7.398 7.398 0 0 0-4.578-1.771c-.055-.002-.11-.002-.166-.002-3.001 0-5.47 2.469-5.47 5.47 0 .101.003.203.009.304a5.11 5.11 0 0 0-.01.328c0 3.107 2.556 5.665 5.663 5.667a7.261 7.261 0 0 0 4.867-2.125l1.6 2.19a9.005 9.005 0 0 1-6.558 2.716c-4.626-.18-8.334-4.035-8.334-8.665 0-4.629 3.708-8.484 8.334-8.664l-.079-.026ZM235.959 188.912h3.043v16.778h-3.043zM251.543 201.387h-5.877l-1.417 4.303h-3.148l5.916-16.778h3.188l5.903 16.778h-3.148l-1.417-4.303Zm-2.952-9.563s-.38 1.653-.708 2.624l-1.482 4.486h4.394l-1.495-4.486c-.302-.944-.656-2.624-.656-2.624h-.053ZM258.207 188.912h3.043v14.154h7.254v2.624h-10.297v-16.778ZM276.571 188.912h3.043v16.778h-3.043zM283.878 188.912h3.043l6.349 9.694c.519.847.987 1.723 1.404 2.624.416.901-.158-1.614-.158-2.624v-9.694h3.017v16.778h-3.017l-6.362-9.668a25.774 25.774 0 0 1-1.39-2.623c-.413-.901.17 1.613.17 2.623v9.668h-3.056v-16.778ZM305.194 191.536h-5.509v-2.624h14.062v2.624h-5.509v14.154h-3.044v-14.154ZM315.911 188.912h10.035v2.624h-6.991v4.394h5.588v2.624h-5.641v4.512h7.372v2.624h-10.415l.052-16.778ZM329.436 188.912h3.043v14.154h7.254v2.624h-10.297v-16.778ZM342.121 188.912h3.043v14.154h7.254v2.624h-10.297v-16.778ZM354.792 188.912h3.056v16.778h-3.056zM369.55 188.637a9.181 9.181 0 0 1 6.244 2.125l-1.509 2.269a7.233 7.233 0 0 0-4.473-1.613 5.038 5.038 0 0 0-.325-.01c-2.987 0-5.444 2.458-5.444 5.444 0 .113.003.225.01.338a5.733 5.733 0 0 0-.014.393c0 3.073 2.529 5.602 5.602 5.602l.04-.001a6.325 6.325 0 0 0 4.197-1.744v-1.968h-2.623v-2.623h5.313v8.841h-2.624v-1.509a7.121 7.121 0 0 1-4.867 1.784c-4.52-.008-8.236-3.73-8.236-8.251 0-.144.004-.288.012-.433a5.784 5.784 0 0 1-.003-.187c0-4.641 3.82-8.461 8.461-8.461.08 0 .159.002.239.004ZM379.939 188.912h10.048v2.624h-6.992v4.394h5.641v2.624h-5.641v4.512h7.359v2.624h-10.415v-16.778ZM393.476 188.912h3.044l6.349 9.694c.518.847.987 1.723 1.403 2.624.417.901-.157-1.614-.157-2.624v-9.694h3.069v16.778h-3.017l-6.362-9.668a25.577 25.577 0 0 1-1.39-2.623c-.413-.901.17 1.613.17 2.623v9.668h-3.043l-.066-16.778ZM418.833 188.637a8.66 8.66 0 0 1 6.191 2.295l-1.469 2.283a7.398 7.398 0 0 0-4.578-1.771c-.055-.002-.111-.002-.166-.002-3.001 0-5.47 2.469-5.47 5.47 0 .101.003.203.009.304a5.05 5.05 0 0 0-.009.302c0 3.101 2.547 5.656 5.649 5.666a7.252 7.252 0 0 0 4.867-2.125l1.6 2.191a9.001 9.001 0 0 1-6.559 2.715c-4.626-.18-8.333-4.034-8.333-8.664 0-4.629 3.707-8.484 8.333-8.664h-.065ZM428.173 188.912h10.035v2.624h-6.979v4.394h5.641v2.624h-5.641v4.512h7.438v2.624h-10.494v-16.778ZM147.874 173.538a6.674 6.674 0 0 0 4.171 1.771c1.312 0 2.44-.656 2.44-2.033 0-2.991-7.87-2.479-7.87-7.621 0-2.794 2.4-4.867 5.614-4.867a7.154 7.154 0 0 1 5.011 1.797l-1.312 2.479a6.103 6.103 0 0 0-3.712-1.469c-1.417 0-2.519.827-2.519 2.007 0 2.978 7.871 2.243 7.871 7.608 0 2.624-2.033 4.906-5.523 4.906a8.108 8.108 0 0 1-5.785-2.282l1.614-2.296ZM168.036 160.749c.065-.002.131-.003.197-.003 4.649 0 8.474 3.826 8.474 8.474l-.001.081c0 4.757-3.914 8.671-8.67 8.671-4.757 0-8.671-3.914-8.671-8.671v-.081c0-4.648 3.825-8.474 8.474-8.474l.197.003Zm0 14.547c3.059-.08 5.531-2.618 5.531-5.678a5.59 5.59 0 0 0-.009-.317c0-3.029-2.493-5.522-5.522-5.522-3.03 0-5.523 2.493-5.523 5.522a5.59 5.59 0 0 0-.009.317c0 3.06 2.473 5.598 5.532 5.678ZM179.75 161.024h5.404a7.796 7.796 0 0 1 3.372.472 4.759 4.759 0 0 1 2.741 4.592 4.836 4.836 0 0 1-2.833 4.578c.221.251.411.528.564.826l3.45 6.257h-3.398l-3.332-6.257h-2.925v6.257h-3.043v-16.725Zm5.785 7.871a2.438 2.438 0 0 0 2.623-2.624c0-1.6-.682-2.623-3.069-2.623h-2.309v5.247h2.755ZM195.229 161.024h6.008c3.017 0 5.168 1.561 5.168 4.329a3.94 3.94 0 0 1-2.033 3.594 3.945 3.945 0 0 1 2.715 3.936c0 3.358-2.689 4.866-5.785 4.866h-6.073v-16.725Zm6.008 6.861.07.001a2.017 2.017 0 0 0 2.002-2.153 1.95 1.95 0 0 0-2.125-2.085h-2.899v4.237h2.952Zm.301 7.293a2.438 2.438 0 0 0 2.605-2.42 2.438 2.438 0 0 0-2.605-2.42h-3.253v4.84h3.253ZM217.857 160.749c.065-.002.131-.003.197-.003 4.649 0 8.474 3.826 8.474 8.474l-.001.081c0 4.757-3.914 8.671-8.67 8.671-4.757 0-8.671-3.914-8.671-8.671l-.001-.081c0-4.648 3.826-8.474 8.475-8.474l.197.003Zm0 14.547c3.058-.08 5.531-2.618 5.531-5.678a5.59 5.59 0 0 0-.009-.317c0-3.029-2.493-5.522-5.522-5.522-3.03 0-5.523 2.493-5.523 5.522a5.59 5.59 0 0 0-.009.317c0 3.06 2.473 5.598 5.532 5.678ZM229.558 161.024h3.056l6.349 9.694c.519.844.984 1.72 1.39 2.624.407.903-.17-1.614-.17-2.624v-9.694h3.03v16.778h-3.03l-6.349-9.668a22.997 22.997 0 0 1-1.39-2.624c-.407-.903.17 1.614.17 2.624v9.668h-3.056v-16.778ZM247.463 161.024h3.044l6.349 9.694c.521.845.99 1.721 1.403 2.624.414.902-.157-1.614-.157-2.624v-9.694h3.017v16.778h-3.017l-6.362-9.668a25.693 25.693 0 0 1-1.391-2.624c-.412-.9.158 1.614.158 2.624v9.668h-3.044v-16.778ZM265.356 161.024h10.035v2.624h-6.979v4.394h5.641v2.624h-5.641v4.512h7.359v2.624h-10.415v-16.778ZM292.037 160.749a8.663 8.663 0 0 1 6.192 2.295l-1.469 2.256a7.347 7.347 0 0 0-4.731-1.773c-3.001 0-5.47 2.47-5.47 5.471 0 .101.002.202.008.303-.007.114-.01.228-.01.341 0 3.101 2.55 5.653 5.651 5.654a7.254 7.254 0 0 0 4.866-2.125l1.601 2.191a9.001 9.001 0 0 1-6.559 2.715c-4.626-.18-8.334-4.035-8.334-8.664 0-4.63 3.708-8.484 8.334-8.664h-.079ZM301.429 161.024h3.057v14.154h7.254v2.624h-10.311v-16.778ZM313.668 161.024h3.004v10.757a3.74 3.74 0 0 0 3.719 3.504 3.74 3.74 0 0 0 3.719-3.504V161.05h3.056v10.757c0 3.752-2.715 6.296-6.755 6.296-4.041 0-6.782-2.544-6.782-6.296l.039-10.783ZM331.535 173.538a6.737 6.737 0 0 0 4.184 1.771c1.312 0 2.44-.656 2.44-2.033 0-2.991-7.871-2.479-7.871-7.621 0-2.794 2.414-4.867 5.628-4.867a7.154 7.154 0 0 1 5.011 1.797l-1.312 2.479a6.146 6.146 0 0 0-3.712-1.469c-1.417 0-2.519.827-2.519 2.007 0 2.978 7.871 2.243 7.871 7.608 0 2.624-2.034 4.906-5.523 4.906a8.108 8.108 0 0 1-5.785-2.282l1.588-2.296ZM347.669 163.648h-5.509v-2.624h14.062v2.624h-5.444v14.154h-3.043l-.066-14.154ZM358.386 161.024h10.035v2.624h-6.991v4.394h5.653v2.624h-5.653v4.512h7.372v2.624h-10.416v-16.778ZM371.911 161.024h5.417a7.887 7.887 0 0 1 3.372.472 4.757 4.757 0 0 1 2.741 4.592 4.836 4.836 0 0 1-2.833 4.578c.221.251.411.528.564.826l3.45 6.257h-3.398l-3.332-6.257h-2.925v6.257h-3.056v-16.725Zm5.798 7.871a2.438 2.438 0 0 0 2.623-2.624c0-1.6-.682-2.623-3.069-2.623h-2.309v5.247h2.755ZM393.096 161.024h9.641v2.624h-6.559v4.748h5.549v2.624h-5.549v6.782h-3.043l-.039-16.778ZM413.048 160.749a6.47 6.47 0 0 1 .197-.003c4.649 0 8.474 3.826 8.474 8.474v.081c0 4.757-3.915 8.671-8.671 8.671-4.757 0-8.671-3.914-8.671-8.671v-.081c0-4.648 3.825-8.474 8.474-8.474l.197.003Zm0 14.547c3.059-.08 5.531-2.618 5.531-5.678a5.59 5.59 0 0 0-.009-.317c0-3.029-2.493-5.522-5.522-5.522-3.03 0-5.523 2.493-5.523 5.522a5.59 5.59 0 0 0-.009.317c0 3.06 2.473 5.598 5.532 5.678ZM424.762 161.024h5.404a7.764 7.764 0 0 1 3.372.472 4.757 4.757 0 0 1 2.741 4.592 4.836 4.836 0 0 1-2.833 4.578c.224.252.417.529.577.826l3.437 6.257h-3.398l-3.266-6.205h-2.925v6.258h-3.109v-16.778Zm5.785 7.871a2.452 2.452 0 0 0 2.623-2.624c0-1.6-.695-2.623-3.082-2.623h-2.309v5.247h2.768Z" style="fill:#e6332a;fill-rule:nonzero"/><path d="M155.167 98.859s10.285 9.38 23.612 9.38c4.696 0 9.182-1.312 9.182-4.329 0-8.12-43.472-9.025-43.472-39.353 0-17.499 16.778-28.321 38.239-28.321 21.46 0 32.649 10.651 32.649 10.651l-10.651 22.182a37.048 37.048 0 0 0-21.998-7.582c-4.697 0-9.183 1.312-9.183 4.513 0 7.031 43.459 8.119 43.459 38.041 0 15.872-14.062 29.41-38.041 29.41a55.912 55.912 0 0 1-37.136-13.695l13.34-20.897ZM269.881 36.262c25.252 0 36.979 14.075 36.979 14.075l-13.118 20.988s-9.011-9.025-21.827-9.025c-14.784 0-22.182 11.19-22.182 22.196 0 11.005 7.582 23.087 23.27 23.087 12.987 0 25.436-11.19 25.436-11.19l11.36 21.828s-13.892 15.335-39.865 15.335c-33.188 0-51.763-23.087-51.763-48.706-.052-24.95 18.339-48.588 51.71-48.588ZM365.837 73.424h1.312v-1.626c0-7.753-5.942-10.285-13.708-10.285-11.714 0-25.068 8.842-25.068 8.842l-10.822-21.999a70.243 70.243 0 0 1 38.96-12.094c26.156 0 41.845 14.259 41.845 37.884v57.18h-28.544v-5.602c.007-1.929.125-3.856.354-5.771h-.354s-6.861 13.537-26.34 13.537c-17.316 0-31.562-11.543-31.562-29.948 0-27.074 39.498-30.118 53.927-30.118Zm-13.747 36.257c8.12 0 15.335-8.841 15.335-16.423v-1.981h-2.886c-9.917 0-21.29 2.886-21.29 10.639.039 4.329 2.754 7.765 8.841 7.765ZM407.329 38.426h31.193v92.9h-31.193v-92.9Zm.354-36.073h30.485v24.359h-30.485V2.353Z" style="fill:#1d2769;fill-rule:nonzero"/></svg>